<?xml version="1.0" standalone="no"?>
<!DOCTYPE svg PUBLIC "-//W3C//DTD SVG 20010904//EN" "http://www.w3.org/TR/2001/REC-SVG-20010904/DTD/svg10.dtd">
<svg version="1.0" xmlns="http://www.w3.org/2000/svg"
  width="528.000000pt" height="516.000000pt" viewBox="0 0 528.000000 516.000000"
  preserveAspectRatio="xMidYMid meet">

  <g transform="translate(0.000000,516.000000) scale(0.100000,-0.100000)"
    fill="#000000" stroke="none">
    <path
      d="M1823 4506 c-186 -61 -301 -249 -263 -433 16 -76 42 -125 96 -183
142 -152 375 -157 523 -11 31 31 67 77 80 103 92 192 13 419 -177 506 -69 31
-192 40 -259 18z" />
    <path fill="#CC3333"
      d="M4760 4164 c-223 -221 -531 -351 -911 -383 -68 -6 -342 -15 -609 -21
-267 -6 -528 -15 -580 -20 -487 -49 -813 -181 -1061 -429 -146 -147 -234 -306
-281 -513 -17 -75 -21 -128 -22 -273 -1 -178 10 -335 22 -335 4 0 18 30 31 68
93 269 307 462 621 561 261 82 269 83 1080 91 767 8 772 9 957 69 488 159 804
588 830 1124 3 73 2 127 -3 126 -5 0 -38 -29 -74 -65z" />
    <path
      d="M2385 2703 c-169 -15 -381 -76 -505 -144 -51 -28 -103 -70 -161 -129
-74 -73 -94 -102 -138 -191 -61 -125 -96 -249 -111 -402 -7 -74 -10 -349 -8
-815 l3 -703 62 38 c110 66 183 125 287 228 231 231 386 518 481 895 25 101
51 257 85 510 32 241 99 614 126 703 6 18 -15 20 -121 10z" />
  </g>
</svg>
